<svg xmlns="http://www.w3.org/2000/svg" width="560" height="300" viewBox="0 0 560 300" role="img" aria-labelledby="title desc">
<title id="title">MohamedAmr23 top languages</title>
<desc id="desc">A pie chart of the most-used languages across public, non-fork repositories.</desc>
<defs>
<linearGradient id="bg" x1="0" y1="0" x2="1" y2="1">
<stop offset="0" stop-color="#020617"/>
<stop offset="1" stop-color="#11152F"/>
</linearGradient>
</defs>
<rect x="0" y="0" width="560" height="300" rx="14" fill="url(#bg)" stroke="#1E293B"/>
<rect x="12" y="12" width="536" height="276" rx="10" fill="#07111F" stroke="#1E293B"/>
<text x="26" y="30" font-family="Consolas, 'Courier New', monospace" font-size="12" letter-spacing="1.5" fill="#22D3EE">TOP.LANGUAGES</text>
<path d="M 170 155 L 170.00 63.00 A 92 92 0 0 1 248.88 202.35 Z" fill="#22D3EE" stroke="#07111F" stroke-width="2"><title>TypeScript: 33.6%</title></path><path d="M 170 155 L 248.88 202.35 A 92 92 0 0 1 104.56 219.67 Z" fill="#38BDF8" stroke="#07111F" stroke-width="2"><title>JavaScript: 29.0%</title></path><path d="M 170 155 L 104.56 219.67 A 92 92 0 0 1 78.82 142.77 Z" fill="#7C3AED" stroke="#07111F" stroke-width="2"><title>CSS: 14.5%</title></path><path d="M 170 155 L 78.82 142.77 A 92 92 0 0 1 108.47 86.61 Z" fill="#2DD4BF" stroke="#07111F" stroke-width="2"><title>HTML: 11.2%</title></path><path d="M 170 155 L 108.47 86.61 A 92 92 0 0 1 160.37 63.51 Z" fill="#F472B6" stroke="#07111F" stroke-width="2"><title>Python: 10.0%</title></path><path d="M 170 155 L 160.37 63.51 A 92 92 0 0 1 164.38 63.17 Z" fill="#FACC15" stroke="#07111F" stroke-width="2"><title>C++: 0.7%</title></path><path d="M 170 155 L 164.38 63.17 A 92 92 0 0 1 167.18 63.04 Z" fill="#818CF8" stroke="#07111F" stroke-width="2"><title>Verilog: 0.5%</title></path><path d="M 170 155 L 167.18 63.04 A 92 92 0 0 1 168.39 63.01 Z" fill="#34D399" stroke="#07111F" stroke-width="2"><title>SCSS: 0.2%</title></path><path d="M 170 155 L 168.39 63.01 A 92 92 0 0 1 170.00 63.00 Z" fill="#22D3EE" stroke="#07111F" stroke-width="2"><title>Other: 0.3%</title></path>

      <rect x="330" y="40" width="12" height="12" rx="3" fill="#22D3EE"/>
      <text x="350" y="50.5" font-family="Consolas, 'Courier New', monospace" font-size="12" fill="#E5E7EB">TypeScript</text>
      <text x="534" y="50.5" text-anchor="end" font-family="Consolas, 'Courier New', monospace" font-size="12" fill="#64748B">33.6%</text>
      <rect x="330" y="64" width="12" height="12" rx="3" fill="#38BDF8"/>
      <text x="350" y="74.5" font-family="Consolas, 'Courier New', monospace" font-size="12" fill="#E5E7EB">JavaScript</text>
      <text x="534" y="74.5" text-anchor="end" font-family="Consolas, 'Courier New', monospace" font-size="12" fill="#64748B">29.0%</text>
      <rect x="330" y="88" width="12" height="12" rx="3" fill="#7C3AED"/>
      <text x="350" y="98.5" font-family="Consolas, 'Courier New', monospace" font-size="12" fill="#E5E7EB">CSS</text>
      <text x="534" y="98.5" text-anchor="end" font-family="Consolas, 'Courier New', monospace" font-size="12" fill="#64748B">14.5%</text>
      <rect x="330" y="112" width="12" height="12" rx="3" fill="#2DD4BF"/>
      <text x="350" y="122.5" font-family="Consolas, 'Courier New', monospace" font-size="12" fill="#E5E7EB">HTML</text>
      <text x="534" y="122.5" text-anchor="end" font-family="Consolas, 'Courier New', monospace" font-size="12" fill="#64748B">11.2%</text>
      <rect x="330" y="136" width="12" height="12" rx="3" fill="#F472B6"/>
      <text x="350" y="146.5" font-family="Consolas, 'Courier New', monospace" font-size="12" fill="#E5E7EB">Python</text>
      <text x="534" y="146.5" text-anchor="end" font-family="Consolas, 'Courier New', monospace" font-size="12" fill="#64748B">10.0%</text>
      <rect x="330" y="160" width="12" height="12" rx="3" fill="#FACC15"/>
      <text x="350" y="170.5" font-family="Consolas, 'Courier New', monospace" font-size="12" fill="#E5E7EB">C++</text>
      <text x="534" y="170.5" text-anchor="end" font-family="Consolas, 'Courier New', monospace" font-size="12" fill="#64748B">0.7%</text>
      <rect x="330" y="184" width="12" height="12" rx="3" fill="#818CF8"/>
      <text x="350" y="194.5" font-family="Consolas, 'Courier New', monospace" font-size="12" fill="#E5E7EB">Verilog</text>
      <text x="534" y="194.5" text-anchor="end" font-family="Consolas, 'Courier New', monospace" font-size="12" fill="#64748B">0.5%</text>
      <rect x="330" y="208" width="12" height="12" rx="3" fill="#34D399"/>
      <text x="350" y="218.5" font-family="Consolas, 'Courier New', monospace" font-size="12" fill="#E5E7EB">SCSS</text>
      <text x="534" y="218.5" text-anchor="end" font-family="Consolas, 'Courier New', monospace" font-size="12" fill="#64748B">0.2%</text>
      <rect x="330" y="232" width="12" height="12" rx="3" fill="#22D3EE"/>
      <text x="350" y="242.5" font-family="Consolas, 'Courier New', monospace" font-size="12" fill="#E5E7EB">Other</text>
      <text x="534" y="242.5" text-anchor="end" font-family="Consolas, 'Courier New', monospace" font-size="12" fill="#64748B">0.3%</text>
</svg>